<svg width="2178" height="2178" viewBox="0 0 2178 2178" fill="none" xmlns="http://www.w3.org/2000/svg">
<path d="M1 10.0001L1.00009 2170M65 10.0001L65.0001 2170M129 10.0001L129 2170M193 10.0001L193 2170M257 10.0001L257 2170M321 10.0001L321 2170M385 10.0001L385 2170M449 10.0001L449 2170M513 10.0001L513 2170M577 10.0001L577 2170M641 10.0001L641 2170M705 10.0001L705 2170M769 10.0001L769 2170M833 10.0001L833 2170M897 10.0001L897 2170M961 10.0001L961 2170M1025 10.0001L1025 2170M1089 10.0001L1089 2170M1153 10.0001L1153 2170M1217 10.0001L1217 2170M1281 10.0001L1281 2170M1345 10.0001L1345 2170M1409 10.0001L1409 2170M1473 10.0001L1473 2170M1537 10.0001L1537 2170M1601 10.0001L1601 2170M1665 10.0001L1665 2170M1729 10.0001L1729 2170M1793 10.0001L1793 2170M1857 10.0001L1857 2170M1921 10.0001L1921 2170M1985 10.0001L1985 2170M2049 10.0001V2170M2113 10.0001V2170M2177 10.0001V2170M8.00005 2177L2168 2177M8.00004 2113L2168 2113M8.00004 2049L2168 2049M8.00004 1985L2168 1985M8.00004 1921L2168 1921M8.00003 1857L2168 1857M8.00003 1793L2168 1793M8.00003 1729L2168 1729M8.00002 1665L2168 1665M8.00002 1601L2168 1601M8.00002 1537L2168 1537M8.00002 1473L2168 1473M8.00001 1409L2168 1409M8.00001 1345L2168 1345M8.00001 1281L2168 1281M8.00001 1217L2168 1217M8 1153L2168 1153M8 1089L2168 1089M8 1025L2168 1025M7.99999 961L2168 961M7.99999 897L2168 897M7.99999 833L2168 833M7.99999 769L2168 769M7.99998 705L2168 705M7.99998 641L2168 641M7.99998 577L2168 577M7.99997 513L2168 513M7.99997 449L2168 449M7.99997 385L2168 385M7.99997 321L2168 321M7.99996 257L2168 257M7.99996 193L2168 193M7.99996 129L2168 129M7.99996 65.0002L2168 65M7.99995 1.00019L2168 1" stroke="#222222"/>
</svg>
